<?xml version="1.0" encoding="UTF-8"?>
<svg version="1.1" xmlns="http://www.w3.org/2000/svg" width="500" height="500">
<path d="M0 0 C0.73863281 0.01160156 1.47726562 0.02320312 2.23828125 0.03515625 C10.84028589 0.80947745 16.12875323 6.73423647 22.16796875 12.32568359 C25.12536935 15.0284892 28.19221285 17.59965965 31.25 20.1875 C36.91812482 25.0330593 42.48175179 29.98424128 48 35 C49.66588499 36.50086808 51.33256109 38.00085849 53 39.5 C53.82757813 40.24507812 54.65515625 40.99015625 55.5078125 41.7578125 C57.14739879 43.23292618 58.78799655 44.70691652 60.4296875 46.1796875 C62.95712487 48.44872871 65.47947869 50.72327911 68 53 C68.94875 53.85464844 69.8975 54.70929688 70.875 55.58984375 C76.19374201 60.40344897 81.43328929 65.29711475 86.5625 70.3125 C87.06313965 70.79178955 87.5637793 71.2710791 88.07958984 71.76489258 C94.54582536 78.17016769 96.72783371 85.65269335 97.109375 94.55078125 C96.6160273 105.88015883 88.15006053 113.34837439 80.5 120.875 C79.61505859 121.75269043 78.73011719 122.63038086 77.81835938 123.53466797 C71.89892555 129.33069083 65.82227071 134.66325895 59.18359375 139.609375 C54.91671221 142.81346273 50.87953473 146.25467742 46.81640625 149.7109375 C45.88699219 150.46632812 44.95757812 151.22171875 44 152 C43.28541626 152.68509644 43.28541626 152.68509644 42.55639648 153.3840332 C36.97454086 158.22770709 31.019165 157.6440925 23.9375 157.4375 C22.70338379 157.41502197 21.46926758 157.39254395 20.19775391 157.36938477 C16.46300351 157.28247972 12.73276248 157.1484878 9 157 C7.91315918 156.96519531 6.82631836 156.93039063 5.70654297 156.89453125 C-15.13136439 156.12947436 -15.13136439 156.12947436 -23 148 C-23.47050781 148.42152344 -23.94101562 148.84304687 -24.42578125 149.27734375 C-25.04839844 149.82519531 -25.67101562 150.37304688 -26.3125 150.9375 C-26.92738281 151.48277344 -27.54226563 152.02804688 -28.17578125 152.58984375 C-30 154 -30 154 -33 155 C-35.1875 154.0625 -35.1875 154.0625 -37 153 C-37.556875 153.56847656 -38.11375 154.13695312 -38.6875 154.72265625 C-39.8321875 155.88087891 -39.8321875 155.88087891 -41 157.0625 C-41.7425 157.81660156 -42.485 158.57070312 -43.25 159.34765625 C-46.0643955 162.06210873 -48.97756219 164.61936358 -51.9296875 167.18139648 C-55.19068441 170.04592077 -58.34422355 173.02059109 -61.5 176 C-62.90751243 177.3242609 -64.31506566 178.64847843 -65.72265625 179.97265625 C-66.43309082 180.64184082 -67.14352539 181.31102539 -67.87548828 182.00048828 C-70.56891946 184.53544592 -73.26804002 187.06428712 -75.96777344 189.5925293 C-77.95217442 191.45124499 -79.93521178 193.3114058 -81.91796875 195.171875 C-84.73013388 197.81044969 -87.54588476 200.44513765 -90.36328125 203.078125 C-97.36237889 209.62977755 -104.28751812 216.22597666 -111.02734375 223.04443359 C-114.85734817 226.90252115 -118.85454685 230.4883558 -123 234 C-124.50192334 235.31029864 -126.0019485 236.62277648 -127.5 237.9375 C-128.66666667 238.95833333 -129.83333333 239.97916667 -131 241 C-130.45804827 243.56630083 -130.16131398 244.82007286 -128.375 246.8125 C-126.78502417 249.342007 -126.53438952 251.05309488 -127.09375 253.99609375 C-129.89828439 260.19749952 -136.21940833 264.76122878 -142 268 C-140.39710014 272.27780281 -137.13704633 274.86008702 -133.8125 277.8125 C-132.62658091 278.88428553 -131.44167589 279.95719423 -130.2578125 281.03125 C-129.69094727 281.54429687 -129.12408203 282.05734375 -128.54003906 282.5859375 C-126.6999077 284.27554448 -124.93341872 286.02597852 -123.1875 287.8125 C-120.90270457 290.14231603 -118.53554239 292.30820096 -116.0625 294.4375 C-100.51274455 307.93408386 -100.51274455 307.93408386 -99.609375 316.859375 C-99.71083792 321.45902735 -101.49271535 323.49271535 -104.75 326.75 C-105.24153564 327.25168701 -105.73307129 327.75337402 -106.23950195 328.27026367 C-107.27992136 329.32678814 -108.32939611 330.37446279 -109.38720703 331.41357422 C-110.98638384 332.98660645 -112.55628735 334.58424123 -114.12109375 336.19140625 C-118.95028015 341.1247756 -123.88107187 345.88223473 -129.140625 350.359375 C-131.89495664 352.78966763 -134.43161903 355.42277263 -137.0078125 358.0390625 C-138.90327074 359.90478806 -140.85446735 361.64659255 -142.875 363.375 C-146.06682509 366.11621449 -149.04302977 369.00685888 -152 372 C-154.89591958 374.93118191 -157.80242571 377.76403174 -160.9375 380.4375 C-164.28925096 383.30172355 -167.40556417 386.36334093 -170.5 389.5 C-174.1684722 393.2184599 -177.93149226 396.73668192 -181.90625 400.125 C-185.04443273 402.93531289 -187.9720669 405.95118637 -190.92919922 408.94873047 C-194.17391744 412.22047862 -197.53309517 415.27301566 -201.04296875 418.25390625 C-203.28849625 420.25740085 -205.34978337 422.39545734 -207.4375 424.5625 C-216.45154145 433.68533161 -227.30266868 439.81734281 -240.296875 440.265625 C-241.78123402 440.27426079 -243.26573127 440.26850948 -244.75 440.25 C-245.56001465 440.24323242 -246.3700293 440.23646484 -247.20458984 440.22949219 C-280.38021197 439.68386138 -310.15233755 432.17684798 -334 408 C-334.67546875 407.32324219 -335.3509375 406.64648438 -336.046875 405.94921875 C-355.69283588 384.9558579 -364.30239089 344.49324111 -365.375 316.5625 C-365.04117368 308.01364343 -361.92253425 300.87297235 -357 294 C-356.401875 293.154375 -355.80375 292.30875 -355.1875 291.4375 C-353.40962105 289.45643488 -351.7022387 287.84013316 -349.6875 286.125 C-344.72232895 281.89575486 -340.19412308 277.24798442 -335.6315918 272.59423828 C-332.54675631 269.46747932 -329.42571861 266.45726361 -326.09375 263.59375 C-321.49269878 259.62640322 -317.25729797 255.32994811 -313 251 C-304.57808043 242.43436166 -304.57808043 242.43436166 -300.03125 238.53125 C-295.26833486 234.43797243 -290.90285874 229.97353063 -286.5 225.5 C-277.5467244 216.40301211 -277.5467244 216.40301211 -273.00390625 212.50390625 C-268.22621011 208.40278238 -263.851942 203.92240396 -259.4375 199.4375 C-243.2180248 182.96036832 -243.2180248 182.96036832 -237.1328125 182.5546875 C-232.64563591 183.49157053 -229.10665024 186.75671468 -226 190 C-226 190.66 -226 191.32 -226 192 C-225.46890625 192.20238281 -224.9378125 192.40476563 -224.390625 192.61328125 C-220.95783085 194.60452622 -218.4910158 197.34465572 -215.75 200.1875 C-211.58074371 204.44047864 -207.37609187 208.52662969 -202.8359375 212.38671875 C-199.3880416 215.41646557 -196.21298547 218.7253581 -193 222 C-192.00120992 223.00120846 -191.00140944 224.00141143 -190 225 C-189.34 225.66 -188.68 226.32 -188 227 C-183.27071173 225.08303121 -179.77869195 221.36109104 -176.12890625 217.90039062 C-171.83969233 214.07473783 -168.78022181 213.05418958 -163 213 C-160.25 215 -160.25 215 -158 217 C-154.82732589 216.66340364 -153.19692766 215.56337227 -151.00732422 213.31616211 C-150.45350067 212.75565659 -149.89967712 212.19515106 -149.32907104 211.61766052 C-148.74352448 211.01035599 -148.15797791 210.40305145 -147.5546875 209.77734375 C-146.94360138 209.15726944 -146.33251526 208.53719513 -145.70291138 207.89833069 C-143.75298718 205.91838728 -141.81326936 203.9288496 -139.875 201.9375 C-137.92872331 199.94348987 -135.98031463 197.95176245 -134.02566528 195.96595764 C-132.80967385 194.7301148 -131.59865121 193.48936019 -130.39303589 192.24339294 C-128.96628517 190.79101598 -127.48761385 189.38997175 -126 188 C-125.34 188 -124.68 188 -124 188 C-123.67 187.01 -123.34 186.02 -123 185 C-121.6796875 183.703125 -121.6796875 183.703125 -119.875 182.25 C-114.8314879 177.98941577 -110.25002388 173.30538384 -105.63232422 168.59472656 C-102.56529613 165.486438 -99.46519659 162.49415225 -96.1484375 159.65234375 C-90.27370887 154.58934912 -84.95111319 148.95905256 -79.5390625 143.41210938 C-78.31703125 142.17364258 -78.31703125 142.17364258 -77.0703125 140.91015625 C-76.33570801 140.15871338 -75.60110352 139.40727051 -74.84423828 138.63305664 C-73 137 -73 137 -71 137 C-70.67 136.01 -70.34 135.02 -70 134 C-67.98547188 132.12602036 -65.86139472 130.43900877 -63.71484375 128.71875 C-61.64684906 127.05069778 -61.64684906 127.05069778 -62 124 C-62.3062434 122.66018514 -62.63451555 121.32488113 -63 120 C-61.35 118.68 -59.7 117.36 -58 116 C-59.31851049 111.64891537 -61.60276987 108.98288666 -64.66015625 105.74609375 C-67.6247105 101.88266591 -67.18852975 97.16800883 -67.23828125 92.48828125 C-67.246353 91.76062057 -67.25442474 91.0329599 -67.26274109 90.2832489 C-67.27654487 88.74427648 -67.28728353 87.20527391 -67.29516602 85.66625977 C-67.30665676 84.10594595 -67.3270626 82.54567054 -67.35668945 80.9855957 C-67.66817218 64.56401769 -67.66817218 64.56401769 -63 57 C-62.51917969 56.0925 -62.03835938 55.185 -61.54296875 54.25 C-56.58476656 46.01967014 -51.48808043 39.08406535 -44 33 C-42.90477716 31.80522703 -41.83367779 30.58810465 -40.78125 29.35546875 C-37.11028183 25.10850176 -33.33255202 20.97622577 -29.5 16.875 C-28.56220703 15.85986328 -28.56220703 15.85986328 -27.60546875 14.82421875 C-19.64591519 6.30436535 -12.53589652 -1.11886872 0 0 Z M-1.4987793 29.17407227 C-2.01867432 29.71604248 -2.53856934 30.2580127 -3.07421875 30.81640625 C-3.94566528 31.71008911 -3.94566528 31.71008911 -4.8347168 32.62182617 C-5.44613525 33.26224854 -6.05755371 33.9026709 -6.6875 34.5625 C-7.95644238 35.86382575 -9.22725864 37.16332704 -10.5 38.4609375 C-11.41265625 39.39244629 -11.41265625 39.39244629 -12.34375 40.34277344 C-14.21819765 42.21832631 -16.16314572 43.97523368 -18.1875 45.6875 C-30.25313943 55.38062395 -30.25313943 55.38062395 -37.80859375 68.09765625 C-38.06291158 73.28262599 -37.60252987 78.28205958 -37.0625 83.4375 C-36.96259766 84.45521484 -36.86269531 85.47292969 -36.75976562 86.52148438 C-36.51391025 89.01516031 -36.26047263 91.50781576 -36 94 C-35.278125 93.319375 -34.55625 92.63875 -33.8125 91.9375 C-31 90 -31 90 -28.57177734 90.15356445 C-25.5567145 91.14589623 -24.22708107 92.32429039 -22.0390625 94.60546875 C-21.31976563 95.34216797 -20.60046875 96.07886719 -19.859375 96.83789062 C-19.12203125 97.61326172 -18.3846875 98.38863281 -17.625 99.1875 C-13.04500434 103.9333789 -8.51543947 108.58939318 -3.41723633 112.78369141 C-1.59721354 114.34568168 -0.21344781 115.93000079 1 118 C1 121 1 121 -1 123.1875 C-1.66 123.785625 -2.32 124.38375 -3 125 C3.59252914 127.62673445 9.4871328 128.5471299 16.5625 128.5625 C17.45646484 128.59923828 18.35042969 128.63597656 19.27148438 128.67382812 C26.31558274 128.72020478 29.87580953 126.67085285 35 122 C36.21258359 120.98453193 37.42611214 119.97019109 38.640625 118.95703125 C39.84669436 117.9122434 41.04975857 116.86397775 42.25 115.8125 C42.89187256 115.25224121 43.53374512 114.69198242 44.19506836 114.11474609 C56.793304 103.24762848 56.793304 103.24762848 68 91 C64.50522796 87.46058671 60.92009639 84.04508858 57.25 80.6875 C56.07638861 79.60593983 54.90323315 78.52388477 53.73046875 77.44140625 C51.89565451 75.7480647 50.06030458 74.05537162 48.22119141 72.36669922 C40.41631937 65.18587733 32.80833022 57.84125475 25.34765625 50.3046875 C24.67390457 49.62528107 24.00015289 48.94587463 23.3059845 48.24588013 C19.88311586 44.79260732 16.46948584 41.33088503 13.06860352 37.85595703 C11.79861265 36.57036847 10.52836043 35.28503802 9.2578125 34 C8.67101212 33.39453339 8.08421173 32.78906677 7.47962952 32.16525269 C6.0423562 30.71900776 4.5268504 29.35133519 3 28 C0.07629592 27.69166438 0.07629592 27.69166438 -1.4987793 29.17407227 Z " fill="#797878" transform="translate(393,18)"/>
<path d="M0 0 C0.73863281 0.01160156 1.47726562 0.02320312 2.23828125 0.03515625 C10.84028589 0.80947745 16.12875323 6.73423647 22.16796875 12.32568359 C25.12536935 15.0284892 28.19221285 17.59965965 31.25 20.1875 C36.91812482 25.0330593 42.48175179 29.98424128 48 35 C49.66588499 36.50086808 51.33256109 38.00085849 53 39.5 C53.82757813 40.24507812 54.65515625 40.99015625 55.5078125 41.7578125 C57.14739879 43.23292618 58.78799655 44.70691652 60.4296875 46.1796875 C62.95712487 48.44872871 65.47947869 50.72327911 68 53 C68.94875 53.85464844 69.8975 54.70929688 70.875 55.58984375 C76.19374201 60.40344897 81.43328929 65.29711475 86.5625 70.3125 C87.06313965 70.79178955 87.5637793 71.2710791 88.07958984 71.76489258 C94.54582536 78.17016769 96.72783371 85.65269335 97.109375 94.55078125 C96.6160273 105.88015883 88.15006053 113.34837439 80.5 120.875 C79.61505859 121.75269043 78.73011719 122.63038086 77.81835938 123.53466797 C71.89892555 129.33069083 65.82227071 134.66325895 59.18359375 139.609375 C54.91671221 142.81346273 50.87953473 146.25467742 46.81640625 149.7109375 C45.88699219 150.46632812 44.95757812 151.22171875 44 152 C43.28541626 152.68509644 43.28541626 152.68509644 42.55639648 153.3840332 C36.97454086 158.22770709 31.019165 157.6440925 23.9375 157.4375 C22.70338379 157.41502197 21.46926758 157.39254395 20.19775391 157.36938477 C16.46300351 157.28247972 12.73276248 157.1484878 9 157 C7.91315918 156.96519531 6.82631836 156.93039063 5.70654297 156.89453125 C-15.13136439 156.12947436 -15.13136439 156.12947436 -23 148 C-23.47050781 148.42152344 -23.94101562 148.84304687 -24.42578125 149.27734375 C-25.04839844 149.82519531 -25.67101562 150.37304688 -26.3125 150.9375 C-26.92738281 151.48277344 -27.54226563 152.02804688 -28.17578125 152.58984375 C-30 154 -30 154 -33 155 C-35.1875 154.0625 -35.1875 154.0625 -37 153 C-37.556875 153.56847656 -38.11375 154.13695312 -38.6875 154.72265625 C-39.8321875 155.88087891 -39.8321875 155.88087891 -41 157.0625 C-41.7425 157.81660156 -42.485 158.57070312 -43.25 159.34765625 C-46.0643955 162.06210873 -48.97756219 164.61936358 -51.9296875 167.18139648 C-55.19068441 170.04592077 -58.34422355 173.02059109 -61.5 176 C-62.90751243 177.3242609 -64.31506566 178.64847843 -65.72265625 179.97265625 C-66.43309082 180.64184082 -67.14352539 181.31102539 -67.87548828 182.00048828 C-70.56891946 184.53544592 -73.26804002 187.06428712 -75.96777344 189.5925293 C-77.95217442 191.45124499 -79.93521178 193.3114058 -81.91796875 195.171875 C-84.73013388 197.81044969 -87.54588476 200.44513765 -90.36328125 203.078125 C-97.36237889 209.62977755 -104.28751812 216.22597666 -111.02734375 223.04443359 C-114.85734817 226.90252115 -118.85454685 230.4883558 -123 234 C-124.50192334 235.31029864 -126.0019485 236.62277648 -127.5 237.9375 C-128.66666667 238.95833333 -129.83333333 239.97916667 -131 241 C-130.45804827 243.56630083 -130.16131398 244.82007286 -128.375 246.8125 C-126.77933313 249.35106093 -126.52361913 251.06282056 -127.1171875 254.01171875 C-130.45927858 261.53881769 -138.57538386 266.27955065 -145.34375 270.3671875 C-149.87242896 273.15099309 -154.23568175 276.23568175 -158 280 C-158.99 280 -159.98 280 -161 280 C-161.28875 280.61875 -161.5775 281.2375 -161.875 281.875 C-163.62089648 285.17280447 -165.65607419 286.53703246 -169 288 C-169.66 288 -170.32 288 -171 288 C-171 288.66 -171 289.32 -171 290 C-172.80675688 291.4566792 -174.67270462 292.84029618 -176.5625 294.1875 C-180.99239797 297.38726892 -184.95576314 300.69845177 -188.59765625 304.78515625 C-190 306 -190 306 -193 306 C-193 306.66 -193 307.32 -193 308 C-194.10859375 308.32613281 -195.2171875 308.65226562 -196.359375 308.98828125 C-197.82304583 309.429259 -199.28658044 309.87068908 -200.75 310.3125 C-201.47960937 310.52583984 -202.20921875 310.73917969 -202.9609375 310.95898438 C-203.66992188 311.17490234 -204.37890625 311.39082031 -205.109375 311.61328125 C-205.75874023 311.80704346 -206.40810547 312.00080566 -207.07714844 312.20043945 C-209.11119258 312.93854575 -209.11119258 312.93854575 -210.91308594 314.56176758 C-213.53429542 316.3682188 -215.1199488 316.38677423 -218.28125 316.3984375 C-219.28800781 316.40230469 -220.29476562 316.40617187 -221.33203125 316.41015625 C-222.90017578 316.39275391 -222.90017578 316.39275391 -224.5 316.375 C-225.54542969 316.38660156 -226.59085938 316.39820313 -227.66796875 316.41015625 C-228.67472656 316.40628906 -229.68148437 316.40242188 -230.71875 316.3984375 C-232.09450195 316.39336182 -232.09450195 316.39336182 -233.49804688 316.38818359 C-236.41726849 315.93525987 -237.81034309 314.93419693 -240 313 C-238.22724707 296.73129859 -233.15135109 283.1087236 -225 269 C-224.60941406 268.21238281 -224.21882812 267.42476563 -223.81640625 266.61328125 C-222.83304873 264.67009151 -221.53985901 263.53985901 -220 262 C-218.9790625 260.4221875 -218.9790625 260.4221875 -217.9375 258.8125 C-217.298125 257.884375 -216.65875 256.95625 -216 256 C-215.34 256 -214.68 256 -214 256 C-213.62875 255.195625 -213.62875 255.195625 -213.25 254.375 C-210.50475843 249.15904101 -207.2976977 245.01741307 -203 241 C-202.18402344 240.236875 -201.36804688 239.47375 -200.52734375 238.6875 C-193.26513672 232 -193.26513672 232 -191 232 C-190.67 231.01 -190.34 230.02 -190 229 C-188.35146718 227.97038002 -186.68148472 226.97487789 -185 226 C-183.34464175 224.55488821 -181.72027411 223.07367819 -180.125 221.5625 C-170.64787745 212.95586871 -170.64787745 212.95586871 -164.25 213.0625 C-160.97837989 214.00623657 -160.22920906 214.66463813 -158 217 C-154.83584339 216.58870295 -153.20497968 215.57163613 -151.00732422 213.31616211 C-150.45350067 212.75565659 -149.89967712 212.19515106 -149.32907104 211.61766052 C-148.74352448 211.01035599 -148.15797791 210.40305145 -147.5546875 209.77734375 C-146.94360138 209.15726944 -146.33251526 208.53719513 -145.70291138 207.89833069 C-143.75298718 205.91838728 -141.81326936 203.9288496 -139.875 201.9375 C-137.92872331 199.94348987 -135.98031463 197.95176245 -134.02566528 195.96595764 C-132.80967385 194.7301148 -131.59865121 193.48936019 -130.39303589 192.24339294 C-128.96628517 190.79101598 -127.48761385 189.38997175 -126 188 C-125.34 188 -124.68 188 -124 188 C-123.67 187.01 -123.34 186.02 -123 185 C-121.6796875 183.703125 -121.6796875 183.703125 -119.875 182.25 C-114.8314879 177.98941577 -110.25002388 173.30538384 -105.63232422 168.59472656 C-102.56529613 165.486438 -99.46519659 162.49415225 -96.1484375 159.65234375 C-90.27370887 154.58934912 -84.95111319 148.95905256 -79.5390625 143.41210938 C-78.724375 142.58646484 -77.9096875 141.76082031 -77.0703125 140.91015625 C-76.33570801 140.15871338 -75.60110352 139.40727051 -74.84423828 138.63305664 C-73 137 -73 137 -71 137 C-70.67 136.01 -70.34 135.02 -70 134 C-67.98547188 132.12602036 -65.86139472 130.43900877 -63.71484375 128.71875 C-61.64684906 127.05069778 -61.64684906 127.05069778 -62 124 C-62.3062434 122.66018514 -62.63451555 121.32488113 -63 120 C-61.35 118.68 -59.7 117.36 -58 116 C-59.31851049 111.64891537 -61.60276987 108.98288666 -64.66015625 105.74609375 C-67.6247105 101.88266591 -67.18852975 97.16800883 -67.23828125 92.48828125 C-67.246353 91.76062057 -67.25442474 91.0329599 -67.26274109 90.2832489 C-67.27654487 88.74427648 -67.28728353 87.20527391 -67.29516602 85.66625977 C-67.30665676 84.10594595 -67.3270626 82.54567054 -67.35668945 80.9855957 C-67.66817218 64.56401769 -67.66817218 64.56401769 -63 57 C-62.51917969 56.0925 -62.03835938 55.185 -61.54296875 54.25 C-56.58476656 46.01967014 -51.48808043 39.08406535 -44 33 C-42.90477716 31.80522703 -41.83367779 30.58810465 -40.78125 29.35546875 C-37.11028183 25.10850176 -33.33255202 20.97622577 -29.5 16.875 C-28.87480469 16.19824219 -28.24960937 15.52148438 -27.60546875 14.82421875 C-19.64591519 6.30436535 -12.53589652 -1.11886872 0 0 Z M-1.4987793 29.17407227 C-2.01867432 29.71604248 -2.53856934 30.2580127 -3.07421875 30.81640625 C-3.94566528 31.71008911 -3.94566528 31.71008911 -4.8347168 32.62182617 C-5.44613525 33.26224854 -6.05755371 33.9026709 -6.6875 34.5625 C-7.95644238 35.86382575 -9.22725864 37.16332704 -10.5 38.4609375 C-11.41265625 39.39244629 -11.41265625 39.39244629 -12.34375 40.34277344 C-14.21819765 42.21832631 -16.16314572 43.97523368 -18.1875 45.6875 C-30.25313943 55.38062395 -30.25313943 55.38062395 -37.80859375 68.09765625 C-38.06291158 73.28262599 -37.60252987 78.28205958 -37.0625 83.4375 C-36.96259766 84.45521484 -36.86269531 85.47292969 -36.75976562 86.52148438 C-36.51391025 89.01516031 -36.26047263 91.50781576 -36 94 C-35.278125 93.319375 -34.55625 92.63875 -33.8125 91.9375 C-31 90 -31 90 -28.57177734 90.15356445 C-25.5567145 91.14589623 -24.22708107 92.32429039 -22.0390625 94.60546875 C-21.31976563 95.34216797 -20.60046875 96.07886719 -19.859375 96.83789062 C-19.12203125 97.61326172 -18.3846875 98.38863281 -17.625 99.1875 C-13.04500434 103.9333789 -8.51543947 108.58939318 -3.41723633 112.78369141 C-1.59721354 114.34568168 -0.21344781 115.93000079 1 118 C1 121 1 121 -1 123.1875 C-1.66 123.785625 -2.32 124.38375 -3 125 C3.59252914 127.62673445 9.4871328 128.5471299 16.5625 128.5625 C17.45646484 128.59923828 18.35042969 128.63597656 19.27148438 128.67382812 C26.31558274 128.72020478 29.87580953 126.67085285 35 122 C36.21258359 120.98453193 37.42611214 119.97019109 38.640625 118.95703125 C39.84669436 117.9122434 41.04975857 116.86397775 42.25 115.8125 C42.89187256 115.25224121 43.53374512 114.69198242 44.19506836 114.11474609 C56.793304 103.24762848 56.793304 103.24762848 68 91 C64.50522796 87.46058671 60.92009639 84.04508858 57.25 80.6875 C56.07638861 79.60593983 54.90323315 78.52388477 53.73046875 77.44140625 C51.89565451 75.7480647 50.06030458 74.05537162 48.22119141 72.36669922 C40.41631937 65.18587733 32.80833022 57.84125475 25.34765625 50.3046875 C24.67390457 49.62528107 24.00015289 48.94587463 23.3059845 48.24588013 C19.88311586 44.79260732 16.46948584 41.33088503 13.06860352 37.85595703 C11.79861265 36.57036847 10.52836043 35.28503802 9.2578125 34 C8.67101212 33.39453339 8.08421173 32.78906677 7.47962952 32.16525269 C6.0423562 30.71900776 4.5268504 29.35133519 3 28 C0.07629592 27.69166438 0.07629592 27.69166438 -1.4987793 29.17407227 Z " fill="#CF6703" transform="translate(393,18)"/>
<path d="M0 0 C8.01994296 2.07608452 12.30750569 6.1751221 18 12 C18.71671875 12.68320312 19.4334375 13.36640625 20.171875 14.0703125 C30.61237547 24.13550086 30.61237547 24.13550086 31.38671875 31.85546875 C31.28895751 36.45870216 29.51006735 38.48993265 26.25 41.75 C25.75846436 42.25168701 25.26692871 42.75337402 24.76049805 43.27026367 C23.72007864 44.32678814 22.67060389 45.37446279 21.61279297 46.41357422 C20.01361616 47.98660645 18.44371265 49.58424123 16.87890625 51.19140625 C12.04971985 56.1247756 7.11892813 60.88223473 1.859375 65.359375 C-0.89495664 67.78966763 -3.43161903 70.42277263 -6.0078125 73.0390625 C-7.90327074 74.90478806 -9.85446735 76.64659255 -11.875 78.375 C-15.06682509 81.11621449 -18.04302977 84.00685888 -21 87 C-23.89591958 89.93118191 -26.80242571 92.76403174 -29.9375 95.4375 C-33.28925096 98.30172355 -36.40556417 101.36334093 -39.5 104.5 C-43.1684722 108.2184599 -46.93149226 111.73668192 -50.90625 115.125 C-54.04443273 117.93531289 -56.9720669 120.95118637 -59.92919922 123.94873047 C-63.17391744 127.22047862 -66.53309517 130.27301566 -70.04296875 133.25390625 C-72.28849625 135.25740085 -74.34978337 137.39545734 -76.4375 139.5625 C-85.45154145 148.68533161 -96.30266868 154.81734281 -109.296875 155.265625 C-110.78123402 155.27426079 -112.26573127 155.26850948 -113.75 155.25 C-114.56001465 155.24323242 -115.3700293 155.23646484 -116.20458984 155.22949219 C-139.27861153 154.84999977 -162.80406232 151.94667699 -182.6875 139.4375 C-183.28844482 139.06149658 -183.88938965 138.68549316 -184.50854492 138.2980957 C-187.72224681 136.17960486 -189.52862417 134.54434867 -191 131 C-191.97772879 129.97821411 -192.97564783 128.97503981 -194 128 C-187.26596026 126.18396887 -180.51574792 124.66617836 -173.65625 123.421875 C-145.45238869 118.29465606 -117.75090882 112.0150871 -96 92 C-95.18789062 91.28199219 -94.37578125 90.56398438 -93.5390625 89.82421875 C-91.00378077 87.57285659 -88.49908103 85.29145345 -86 83 C-85.06414062 82.14535156 -84.12828125 81.29070312 -83.1640625 80.41015625 C-81.19871606 78.61408638 -79.23766786 76.81363211 -77.27832031 75.01098633 C-75.22187057 73.11949746 -73.15889377 71.23624336 -71.09033203 69.35791016 C-62.35073243 61.39971361 -54.00038913 53.08764175 -45.6875 44.6875 C-31.07221189 29.9208888 -31.07221189 29.9208888 -25.01879883 24.79174805 C-20.12978864 20.4525963 -15.60197818 15.7024105 -11 11.0625 C-9.92862113 9.98609346 -8.85700818 8.90991986 -7.78515625 7.83398438 C-5.18740362 5.22533255 -2.59282038 2.61355529 0 0 Z " fill="#4F4F4F" transform="translate(262,303)"/>
<path d="M0 0 C2 0 2 0 3.234375 1.22265625 C3.73453125 1.82980469 4.2346875 2.43695313 4.75 3.0625 C7.27984326 6.05623776 9.87939492 8.95597242 12.57421875 11.80078125 C13.20811523 12.47036865 13.84201172 13.13995605 14.49511719 13.82983398 C15.78519979 15.18818265 17.07880187 16.54319778 18.37597656 17.89477539 C18.97249023 18.52504639 19.56900391 19.15531738 20.18359375 19.8046875 C20.72556396 20.37171387 21.26753418 20.93874023 21.82592773 21.52294922 C23 23 23 23 23 25 C23.66 25.33 24.32 25.66 25 26 C23.50341097 27.52419005 22.00251195 29.04414831 20.5 30.5625 C19.6646875 31.40941406 18.829375 32.25632813 17.96875 33.12890625 C15.11035787 35.95241563 12.08748983 38.56787596 9.05273438 41.19897461 C5.79626717 44.05612953 2.64975388 47.02627708 -0.5 50 C-1.90751243 51.3242609 -3.31506566 52.64847843 -4.72265625 53.97265625 C-5.43309082 54.64184082 -6.14352539 55.31102539 -6.87548828 56.00048828 C-9.56891946 58.53544592 -12.26804002 61.06428712 -14.96777344 63.5925293 C-16.95217442 65.45124499 -18.93521178 67.3114058 -20.91796875 69.171875 C-23.73013388 71.81044969 -26.54588476 74.44513765 -29.36328125 77.078125 C-36.36237889 83.62977755 -43.28751812 90.22597666 -50.02734375 97.04443359 C-53.85734817 100.90252115 -57.85454685 104.4883558 -62 108 C-63.50192334 109.31029864 -65.0019485 110.62277648 -66.5 111.9375 C-67.66666667 112.95833333 -68.83333333 113.97916667 -70 115 C-69.45804827 117.56630083 -69.16131398 118.82007286 -67.375 120.8125 C-65.77933313 123.35106093 -65.52361913 125.06282056 -66.1171875 128.01171875 C-69.45927858 135.53881769 -77.57538386 140.27955065 -84.34375 144.3671875 C-88.87242896 147.15099309 -93.23568175 150.23568175 -97 154 C-97.99 154 -98.98 154 -100 154 C-100.28875 154.61875 -100.5775 155.2375 -100.875 155.875 C-102.62089648 159.17280447 -104.65607419 160.53703246 -108 162 C-108.66 162 -109.32 162 -110 162 C-110 162.66 -110 163.32 -110 164 C-111.80675688 165.4566792 -113.67270462 166.84029618 -115.5625 168.1875 C-119.99239797 171.38726892 -123.95576314 174.69845177 -127.59765625 178.78515625 C-129 180 -129 180 -132 180 C-132 180.66 -132 181.32 -132 182 C-133.10859375 182.32613281 -134.2171875 182.65226563 -135.359375 182.98828125 C-136.82304583 183.429259 -138.28658044 183.87068908 -139.75 184.3125 C-140.47960937 184.52583984 -141.20921875 184.73917969 -141.9609375 184.95898438 C-142.66992188 185.17490234 -143.37890625 185.39082031 -144.109375 185.61328125 C-144.75874023 185.80704346 -145.40810547 186.00080566 -146.07714844 186.20043945 C-148.11119258 186.93854575 -148.11119258 186.93854575 -149.91308594 188.56176758 C-152.53429542 190.3682188 -154.1199488 190.38677423 -157.28125 190.3984375 C-158.28800781 190.40230469 -159.29476562 190.40617188 -160.33203125 190.41015625 C-161.90017578 190.39275391 -161.90017578 190.39275391 -163.5 190.375 C-164.54542969 190.38660156 -165.59085938 190.39820313 -166.66796875 190.41015625 C-167.67472656 190.40628906 -168.68148437 190.40242187 -169.71875 190.3984375 C-170.63591797 190.39505371 -171.55308594 190.39166992 -172.49804688 190.38818359 C-175.41726849 189.93525987 -176.81034309 188.93419693 -179 187 C-177.22724707 170.73129859 -172.15135109 157.1087236 -164 143 C-163.60941406 142.21238281 -163.21882812 141.42476562 -162.81640625 140.61328125 C-161.83304873 138.67009151 -160.53985901 137.53985901 -159 136 C-157.9790625 134.4221875 -157.9790625 134.4221875 -156.9375 132.8125 C-156.298125 131.884375 -155.65875 130.95625 -155 130 C-154.34 130 -153.68 130 -153 130 C-152.62875 129.195625 -152.62875 129.195625 -152.25 128.375 C-149.50475843 123.15904101 -146.2976977 119.01741307 -142 115 C-141.18402344 114.236875 -140.36804688 113.47375 -139.52734375 112.6875 C-132.26513672 106 -132.26513672 106 -130 106 C-129.505 104.515 -129.505 104.515 -129 103 C-127.35146718 101.97038002 -125.68148472 100.97487789 -124 100 C-122.34464175 98.55488821 -120.72027411 97.07367819 -119.125 95.5625 C-109.64787745 86.95586871 -109.64787745 86.95586871 -103.25 87.0625 C-99.97837989 88.00623657 -99.22920906 88.66463813 -97 91 C-93.83584339 90.58870295 -92.20497968 89.57163613 -90.00732422 87.31616211 C-89.45350067 86.75565659 -88.89967712 86.19515106 -88.32907104 85.61766052 C-87.74352448 85.01035599 -87.15797791 84.40305145 -86.5546875 83.77734375 C-85.94360138 83.15726944 -85.33251526 82.53719513 -84.70291138 81.89833069 C-82.75298718 79.91838728 -80.81326936 77.9288496 -78.875 75.9375 C-76.92872331 73.94348987 -74.98031463 71.95176245 -73.02566528 69.96595764 C-71.80967385 68.7301148 -70.59865121 67.48936019 -69.39303589 66.24339294 C-67.96628517 64.79101598 -66.48761385 63.38997175 -65 62 C-64.34 62 -63.68 62 -63 62 C-62.67 61.01 -62.34 60.02 -62 59 C-60.6796875 57.703125 -60.6796875 57.703125 -58.875 56.25 C-53.8314879 51.98941577 -49.25002388 47.30538384 -44.63232422 42.59472656 C-41.56529613 39.486438 -38.46519659 36.49415225 -35.1484375 33.65234375 C-29.27370887 28.58934912 -23.95111319 22.95905256 -18.5390625 17.41210938 C-17.724375 16.58646484 -16.9096875 15.76082031 -16.0703125 14.91015625 C-15.33570801 14.15871338 -14.60110352 13.40727051 -13.84423828 12.63305664 C-12 11 -12 11 -10 11 C-9.67 10.01 -9.34 9.02 -9 8 C-7.1875 6.2109375 -7.1875 6.2109375 -5 4.375 C-4.278125 3.76398438 -3.55625 3.15296875 -2.8125 2.5234375 C-2.214375 2.02070313 -1.61625 1.51796875 -1 1 C-0.67 0.67 -0.34 0.34 0 0 Z " fill="#CF6703" transform="translate(332,144)"/>
<path d="M0 0 C2 0 2 0 3.234375 1.22265625 C3.73453125 1.82980469 4.2346875 2.43695313 4.75 3.0625 C7.27984326 6.05623776 9.87939492 8.95597242 12.57421875 11.80078125 C13.20811523 12.47036865 13.84201172 13.13995605 14.49511719 13.82983398 C15.78519979 15.18818265 17.07880187 16.54319778 18.37597656 17.89477539 C18.97249023 18.52504639 19.56900391 19.15531738 20.18359375 19.8046875 C20.72556396 20.37171387 21.26753418 20.93874023 21.82592773 21.52294922 C23 23 23 23 23 25 C23.66 25.33 24.32 25.66 25 26 C23.50341097 27.52419005 22.00251195 29.04414831 20.5 30.5625 C19.6646875 31.40941406 18.829375 32.25632813 17.96875 33.12890625 C15.11035787 35.95241563 12.08748983 38.56787596 9.05273438 41.19897461 C5.79626717 44.05612953 2.64975388 47.02627708 -0.5 50 C-1.90751243 51.3242609 -3.31506566 52.64847843 -4.72265625 53.97265625 C-5.43309082 54.64184082 -6.14352539 55.31102539 -6.87548828 56.00048828 C-9.56891946 58.53544592 -12.26804002 61.06428712 -14.96777344 63.5925293 C-16.95217442 65.45124499 -18.93521178 67.3114058 -20.91796875 69.171875 C-23.73013388 71.81044969 -26.54588476 74.44513765 -29.36328125 77.078125 C-35.85333526 83.15327656 -42.31028962 89.24177225 -48.5625 95.5625 C-60.39944043 107.50249097 -60.39944043 107.50249097 -67 110 C-69.77152212 112.52056045 -69.77152212 112.52056045 -72 115 C-75.78336048 113.45895157 -77.97944825 111.14190393 -80.6875 108.125 C-81.47511719 107.26132813 -82.26273438 106.39765625 -83.07421875 105.5078125 C-84.85623213 103.18721902 -85.60896815 101.84989312 -86 99 C-87.65 98.67 -89.3 98.34 -91 98 C-91 97.34 -91 96.68 -91 96 C-91.66 96 -92.32 96 -93 96 C-93 95.34 -93 94.68 -93 94 C-93.99 93.67 -94.98 93.34 -96 93 C-95.30092529 92.30237549 -94.60185059 91.60475098 -93.8815918 90.88598633 C-91.41853796 88.4230406 -88.96827328 85.94773006 -86.52070618 83.46940613 C-84.22556121 81.14742744 -81.92501688 78.83082841 -79.62426758 76.5144043 C-78.4092823 75.28926822 -77.19608435 74.06235721 -75.98461914 72.83374023 C-74.23006707 71.05505923 -72.46924778 69.28280229 -70.70703125 67.51171875 C-70.16432083 66.95868576 -69.62161041 66.40565277 -69.06245422 65.83586121 C-67.74572395 64.51873647 -66.37717 63.25379382 -65 62 C-64.34 62 -63.68 62 -63 62 C-62.67 61.01 -62.34 60.02 -62 59 C-60.6796875 57.703125 -60.6796875 57.703125 -58.875 56.25 C-53.8314879 51.98941577 -49.25002388 47.30538384 -44.63232422 42.59472656 C-41.56529613 39.486438 -38.46519659 36.49415225 -35.1484375 33.65234375 C-29.27370887 28.58934912 -23.95111319 22.95905256 -18.5390625 17.41210938 C-17.724375 16.58646484 -16.9096875 15.76082031 -16.0703125 14.91015625 C-15.33570801 14.15871338 -14.60110352 13.40727051 -13.84423828 12.63305664 C-12 11 -12 11 -10 11 C-9.67 10.01 -9.34 9.02 -9 8 C-7.1875 6.2109375 -7.1875 6.2109375 -5 4.375 C-4.278125 3.76398438 -3.55625 3.15296875 -2.8125 2.5234375 C-2.214375 2.02070313 -1.61625 1.51796875 -1 1 C-0.67 0.67 -0.34 0.34 0 0 Z " fill="#7A7A79" transform="translate(332,144)"/>
<path d="M0 0 C0.99 0.495 0.99 0.495 2 1 C2 1.99 2 2.98 2 4 C2.99 4.495 2.99 4.495 4 5 C3.2265625 5.86625 3.2265625 5.86625 2.4375 6.75 C1.963125 7.4925 1.48875 8.235 1 9 C1.165 9.639375 1.33 10.27875 1.5 10.9375 C2 13 2 13 1 15.3125 C-1.18720889 18.25156194 -3.60333181 20.6662559 -6.28125 23.15625 C-8.11029283 24.98167431 -8.11029283 24.98167431 -9.421875 27.4453125 C-11.20888442 30.33814459 -13.17669715 32.16132022 -15.75 34.375 C-18.80368104 37.04807731 -21.78804411 39.72267646 -24.625 42.625 C-26.9532 44.99671776 -29.35298523 47.21043614 -31.875 49.375 C-34.8846753 51.96634205 -37.71088616 54.67254783 -40.5 57.5 C-43.12707492 60.16269628 -45.76729011 62.7126475 -48.625 65.125 C-52.80391451 68.6997341 -56.6326315 72.59620936 -60.5 76.5 C-74.41949195 90.51007804 -74.41949195 90.51007804 -81 93 C-83.77152212 95.52056045 -83.77152212 95.52056045 -86 98 C-90.28904235 96.4114658 -92.32345526 93.56872632 -95 90 C-95 89.34 -95 88.68 -95 88 C-93.53125 86.5546875 -93.53125 86.5546875 -91.5 84.875 C-87.88786067 81.80976909 -84.53945981 78.59444052 -81.25 75.1875 C-79.29928431 73.29097086 -77.30750988 71.50528958 -75.25390625 69.72265625 C-71.04507678 66.06631468 -66.9824702 62.27335413 -62.9375 58.4375 C-61.43775066 57.02056798 -59.9377459 55.60390626 -58.4375 54.1875 C-57.69242187 53.48367187 -56.94734375 52.77984375 -56.1796875 52.0546875 C-52.94324773 49.00385001 -49.69156784 45.9695123 -46.4375 42.9375 C-41.92376826 38.73080036 -37.41685362 34.51705896 -32.91870117 30.29370117 C-22.04497815 20.08505355 -11.12015161 9.94036126 0 0 Z " fill="#4F4F4F" transform="translate(346,161)"/>
<path d="M0 0 C2.54054711 1.80473307 4.79160897 3.80503384 7 6 C4.19223193 9.00365886 1.39390267 11.13660656 -2.125 13.25 C-6.98046814 16.26440946 -11.37977764 19.59369104 -15.78515625 23.2265625 C-18 25 -18 25 -21.25 27.0625 C-24.3058088 29.2154562 -26.32517511 31.57811784 -28.60546875 34.51171875 C-30 36 -30 36 -33 37 C-34.68933922 38.6436814 -36.35259924 40.3142876 -38 42 C-38.928125 42.721875 -39.85625 43.44375 -40.8125 44.1875 C-54.25213214 55.4155471 -63.38933647 74.11121222 -70 90 C-70.66 90 -71.32 90 -72 90 C-72.268125 90.7425 -72.53625 91.485 -72.8125 92.25 C-73.95276751 94.89061949 -75.09380306 96.85552844 -77 99 C-77.66 99 -78.32 99 -79 99 C-77.22724707 82.73129859 -72.15135109 69.1087236 -64 55 C-63.60941406 54.21238281 -63.21882812 53.42476563 -62.81640625 52.61328125 C-61.83304873 50.67009151 -60.53985901 49.53985901 -59 48 C-58.319375 46.948125 -57.63875 45.89625 -56.9375 44.8125 C-56.298125 43.884375 -55.65875 42.95625 -55 42 C-54.34 42 -53.68 42 -53 42 C-52.7525 41.46375 -52.505 40.9275 -52.25 40.375 C-49.50475843 35.15904101 -46.2976977 31.01741307 -42 27 C-41.18402344 26.236875 -40.36804688 25.47375 -39.52734375 24.6875 C-32.26513672 18 -32.26513672 18 -30 18 C-29.505 16.515 -29.505 16.515 -29 15 C-27.35146718 13.97038002 -25.68148472 12.97487789 -24 12 C-22.34464175 10.55488821 -20.72027411 9.07367819 -19.125 7.5625 C-7.97496665 -2.56338214 -7.97496665 -2.56338214 0 0 Z " fill="#904803" transform="translate(232,232)"/>
<path d="M0 0 C2.98440625 0 4.63591185 0.68566303 6.88671875 2.62890625 C8.63460934 4.38388767 10.33706129 6.16453738 12 8 C10.33748388 12.12624483 7.37986426 15.06590633 4.375 18.25 C3.83738037 18.82919189 3.29976074 19.40838379 2.74584961 20.00512695 C-0.21939477 23.18144601 -3.26250434 26.21890941 -6.4375 29.1875 C-12.62342073 35.30898405 -15.52192014 42.39456248 -16 51 C-17.14713616 49.85286384 -18.29361811 48.70506872 -19.4375 47.5546875 C-20.53145498 46.46620229 -21.6366391 45.38894015 -22.75 44.3203125 C-26.40171132 40.77878213 -29.35007587 37.34587558 -32 33 C-30.52761526 29.46470188 -28.58999241 27.52595994 -25.6875 25.0625 C-21.4394825 21.38633101 -17.36986197 17.78497166 -13.9375 13.3125 C-12 11 -12 11 -10.109375 10.109375 C-7.54757982 8.7620605 -6.16406716 7.15054448 -4.3125 4.9375 C-3.71050781 4.22464844 -3.10851562 3.51179688 -2.48828125 2.77734375 C-1.99714844 2.19082031 -1.50601562 1.60429688 -1 1 C-0.67 0.67 -0.34 0.34 0 0 Z " fill="#914802" transform="translate(362,107)"/>
<path d="M0 0 C-1.34252421 4.13526174 -2.98944804 6.22985921 -6.3125 9 C-8.96623706 11.25268998 -11.54113334 13.47448783 -13.9375 16 C-16 18 -16 18 -18 18 C-18 18.99 -18 19.98 -18 21 C-19.57421875 22.6484375 -19.57421875 22.6484375 -21.6875 24.375 C-24.18027513 26.45451082 -26.47415195 28.48492813 -28.75 30.8125 C-30.79381515 32.79954251 -32.3845112 33.93443049 -35 35 C-35 35.66 -35 36.32 -35 37 C-36.64204368 38.69093114 -38.31323386 40.35367818 -40 42 C-41.4606364 43.73073613 -42.89806295 45.48130724 -44.3125 47.25 C-47.20880159 50.83543824 -50.15577267 54.33406661 -53.25 57.75 C-58.37819823 63.47971651 -62.21287714 68.81215683 -65 76 C-65.33 76 -65.66 76 -66 76 C-66.55611758 68.60054662 -65.58383277 63.47974718 -62 57 C-61.55269531 56.1853125 -61.10539062 55.370625 -60.64453125 54.53125 C-55.8128379 46.13731625 -50.53282293 39.12041863 -43 33 C-41.90477716 31.80522703 -40.83367779 30.58810465 -39.78125 29.35546875 C-36.11028183 25.10850176 -32.33255202 20.97622577 -28.5 16.875 C-27.87480469 16.19824219 -27.24960937 15.52148438 -26.60546875 14.82421875 C-12.06599786 -0.73873456 -12.06599786 -0.73873456 0 0 Z " fill="#914905" transform="translate(392,18)"/>
<path d="M0 0 C2.60912064 1.73265875 4.93785817 3.63699857 7 6 C7 6.66 7 7.32 7 8 C7.79664063 8.30357422 7.79664063 8.30357422 8.609375 8.61328125 C12.04216915 10.60452622 14.5089842 13.34465572 17.25 16.1875 C21.41925629 20.44047864 25.62390813 24.52662969 30.1640625 28.38671875 C33.61230791 31.41677269 36.78340753 34.72842304 40 38 C40.97844514 38.95906999 41.95749506 39.91752391 42.9375 40.875 C45 43 45 43 46 45 C42.51345524 43.5158627 40.35808928 41.53785948 37.75 38.8125 C34.9412192 35.93498883 32.12333744 33.17010999 29.0625 30.5625 C24.97081459 27.05650315 21.23033117 23.24538109 17.4453125 19.4140625 C14.71207822 16.71575773 11.86722548 14.20982425 8.9296875 11.73828125 C6.78678329 9.80793232 4.92884505 7.70524421 3 5.5625 C0.23200288 2.83212614 -0.97459362 2.00791346 -4.8125 0.8125 C-10.73746334 1.41780077 -14.72613058 7.30728186 -18.47460938 11.42822266 C-20.15202376 13.15664676 -21.92096377 14.71044507 -23.75 16.27734375 C-28.58636778 20.43723657 -33.02754818 24.95575923 -37.5 29.5 C-42.50920469 34.58960926 -47.54022781 39.53004601 -52.95898438 44.18164062 C-56.98496894 47.76842688 -60.71921498 51.65852822 -64.5 55.5 C-69.51927509 60.59984131 -74.56045625 65.55183483 -79.99023438 70.21289062 C-83.8330919 73.63000884 -87.39608687 77.33458665 -91 81 C-95.87435526 85.95753539 -100.78320271 90.76587767 -106.05322266 95.30224609 C-121.92259228 108.90104294 -121.92259228 108.90104294 -129.30859375 127.80859375 C-130.36340154 157.50303131 -119.88631223 199.85935987 -99.64453125 222.65234375 C-97.80985128 224.50001261 -95.95676209 226.28316787 -94 228 C-94.33 228.66 -94.66 229.32 -95 230 C-117.78301449 208.7001474 -124.04932583 179.77868186 -129.9375 150 C-130.14906738 148.94490234 -130.36063477 147.88980469 -130.57861328 146.80273438 C-133.00128585 133.91205443 -132.78050912 122.88573834 -125.2421875 111.734375 C-124.83226562 111.16203125 -124.42234375 110.5896875 -124 110 C-123.1028125 108.7315625 -123.1028125 108.7315625 -122.1875 107.4375 C-120.40962105 105.45643488 -118.7022387 103.84013316 -116.6875 102.125 C-111.72232895 97.89575486 -107.19412308 93.24798442 -102.6315918 88.59423828 C-99.54675631 85.46747932 -96.42571861 82.45726361 -93.09375 79.59375 C-88.49269878 75.62640322 -84.25729797 71.32994811 -80 67 C-71.57808043 58.43436166 -71.57808043 58.43436166 -67.03125 54.53125 C-62.26833486 50.43797243 -57.90285874 45.97353063 -53.5 41.5 C-44.5467244 32.40301211 -44.5467244 32.40301211 -40.00390625 28.50390625 C-35.22621011 24.40278238 -30.851942 19.92240396 -26.4375 15.4375 C-9.02133333 -2.25533333 -9.02133333 -2.25533333 0 0 Z " fill="#D6D6D6" transform="translate(160,202)"/>
<path d="M0 0 C1.16015625 0.68835938 1.16015625 0.68835938 2.34375 1.390625 C5.55135807 3.2802555 8.77314767 5.14345483 12 7 C12.65355469 7.38929688 13.30710937 7.77859375 13.98046875 8.1796875 C31.00041563 17.60492124 52.61784621 19.21641503 71.625 19.375 C73.22396118 19.39590698 73.22396118 19.39590698 74.85522461 19.41723633 C86.75501563 19.34556766 97.36199848 16.70485904 106 8.1875 C106.66 7.465625 107.32 6.74375 108 6 C108.99 6.33 109.98 6.66 111 7 C100.20504486 17.50813266 89.32610698 22.43800563 74.25 22.25 C73.43998535 22.24323242 72.6299707 22.23646484 71.79541016 22.22949219 C45.14503693 21.79118045 21.21077601 17.28447704 -1 2 C-0.67 1.34 -0.34 0.68 0 0 Z " fill="#BDBDBD" transform="translate(74,436)"/>
<path d="M0 0 C2.31 0 4.62 0 7 0 C5.65747579 4.13526174 4.01055196 6.22985921 0.6875 9 C-1.96623706 11.25268998 -4.54113334 13.47448783 -6.9375 16 C-9 18 -9 18 -11 18 C-12.4606285 15.35261084 -13 14.10551666 -13 11 C-12.01 11 -11.02 11 -10 11 C-9.7525 10.4225 -9.505 9.845 -9.25 9.25 C-7.79320504 6.62776908 -6.31621258 4.90746919 -4 3 C-2.68 3 -1.36 3 0 3 C0 2.01 0 1.02 0 0 Z " fill="#924802" transform="translate(385,18)"/>
<path d="M0 0 C0.804375 0.495 0.804375 0.495 1.625 1 C4.05071012 2.21074153 4.05071012 2.21074153 7.125 1.9375 C8.07375 1.958125 9.0225 1.97875 10 2 C10.99 3.485 10.99 3.485 12 5 C14.72606092 5.57928795 17.23810016 5.94163354 20 6.1875 C21.22456909 6.30810791 21.22456909 6.30810791 22.47387695 6.43115234 C33.95070999 7.42692234 45.49262838 7.17515025 57 7 C57 6.34 57 5.68 57 5 C58.65 5 60.3 5 62 5 C59.85802649 7.57278996 58.6745107 8.87750718 55.32470703 9.48583984 C53.80659424 9.47351318 53.80659424 9.47351318 52.2578125 9.4609375 C51.11924805 9.45884277 49.98068359 9.45674805 48.80761719 9.45458984 C47.59235352 9.4283252 46.37708984 9.40206055 45.125 9.375 C43.87879883 9.35775879 42.63259766 9.34051758 41.34863281 9.32275391 C37.56374273 9.25076659 33.78309281 9.13614729 30 9 C28.34726074 8.94199219 28.34726074 8.94199219 26.66113281 8.8828125 C23.68627082 8.75626222 20.7204076 8.57976677 17.75 8.375 C16.87746582 8.33036621 16.00493164 8.28573242 15.10595703 8.23974609 C8.74276957 7.68842749 4.59746654 5.4491097 0 1 C0 0.67 0 0.34 0 0 Z " fill="#BB732F" transform="translate(372,166)"/>
<path d="M0 0 C4.69566311 3.39066493 8.99190134 6.79638433 13 11 C14.07121094 12.02287109 14.07121094 12.02287109 15.1640625 13.06640625 C25.98847288 23.48534197 25.98847288 23.48534197 26.5625 31.0625 C25.85459405 36.01784162 24.47404642 37.52595358 21 41 C20.67 40.01 20.34 39.02 20 38 C20.474375 37.62875 20.94875 37.2575 21.4375 36.875 C23.72311181 34.13226583 24 32.59222022 24 29 C21.22995551 20.28200721 13.62375338 14.79359959 7 9 C5.56833273 7.66170234 4.1485534 6.31036569 2.75 4.9375 C2.20859375 4.41027344 1.6671875 3.88304687 1.109375 3.33984375 C0 2 0 2 0 0 Z " fill="#BBBBBB" transform="translate(267,304)"/>
<path d="M0 0 C1.485 0.495 1.485 0.495 3 1 C2.28457031 1.64324219 1.56914062 2.28648437 0.83203125 2.94921875 C-5.42000176 8.60703274 -11.46715852 14.41627832 -17.39404297 20.41357422 C-21.42888631 24.47793181 -25.59277629 28.3384093 -30 32 C-30 29 -30 29 -28.84179688 27.48535156 C-28.03838867 26.69596191 -28.03838867 26.69596191 -27.21875 25.890625 C-26.62787598 25.3042627 -26.03700195 24.71790039 -25.42822266 24.11376953 C-24.79190918 23.49872559 -24.1555957 22.88368164 -23.5 22.25 C-22.85724121 21.61819824 -22.21448242 20.98639648 -21.55224609 20.33544922 C-17.7510564 16.62250315 -13.87715392 13.03104369 -9.8203125 9.59765625 C-6.37714974 6.57565288 -3.19946046 3.27604329 0 0 Z " fill="#C0C0C0" transform="translate(300,220)"/>
<path d="M0 0 C3.10577289 4.65865933 2.74213135 9.54790632 2 15 C0.58279959 17.56044387 -0.50244412 18.33496275 -3 20 C-3.66 20 -4.32 20 -5 20 C-5.2475 20.5775 -5.495 21.155 -5.75 21.75 C-7.18299988 24.32939979 -8.78424676 26.06121592 -11 28 C-11.66 28 -12.32 28 -13 28 C-13.3403125 28.928125 -13.3403125 28.928125 -13.6875 29.875 C-15.37929835 32.61410209 -16.99244161 33.05024472 -20 34 C-20 33.34 -20 32.68 -20 32 C-19.01 32 -18.02 32 -17 32 C-17 31.34 -17 30.68 -17 30 C-16.34 30 -15.68 30 -15 30 C-14.74992187 29.42636719 -14.49984375 28.85273437 -14.2421875 28.26171875 C-12.82705424 25.68510819 -11.19586516 23.89508704 -9.125 21.8125 C-8.10792969 20.77029297 -8.10792969 20.77029297 -7.0703125 19.70703125 C-5 18 -5 18 -1 17 C-0.67 11.39 -0.34 5.78 0 0 Z " fill="#C16D1A" transform="translate(355,98)"/>
<path d="M0 0 C1.485 0.495 1.485 0.495 3 1 C2.23816406 1.68964844 1.47632813 2.37929688 0.69140625 3.08984375 C-4.21884068 7.55283332 -9.08922954 12.02392978 -13.75 16.75 C-19.16773078 22.23643389 -24.92410567 27.25320755 -31 32 C-29.38307221 27.91871841 -26.45722594 25.19396067 -23.375 22.1875 C-22.83447998 21.65342529 -22.29395996 21.11935059 -21.73706055 20.5690918 C-18.25474215 17.15315266 -14.67325062 13.89511737 -10.95703125 10.734375 C-7.12816282 7.34112633 -3.57873997 3.65329705 0 0 Z " fill="#B3B3B3" transform="translate(235,392)"/>
<path d="M0 0 C0.66 0.33 1.32 0.66 2 1 C0.09134118 2.82162878 -1.82606299 4.6321312 -3.75 6.4375 C-4.28882813 6.95376953 -4.82765625 7.47003906 -5.3828125 8.00195312 C-8.20501951 10.63486577 -10.20982766 12.28129751 -14 13 C-14 13.66 -14 14.32 -14 15 C-16.64 15.66 -19.28 16.32 -22 17 C-21.67 16.34 -21.34 15.68 -21 15 C-20.01 15 -19.02 15 -18 15 C-17.67 14.01 -17.34 13.02 -17 12 C-16.01 12 -15.02 12 -14 12 C-14 11.34 -14 10.68 -14 10 C-10.00977731 5.75508225 -5.20269534 2.55034086 0 0 Z " fill="#AC6D35" transform="translate(214,311)"/>
<path d="M0 0 C0.66 0.33 1.32 0.66 2 1 C-0.2547288 4.61201024 -2.58157959 7.43618469 -6 10 C-11.09977797 11.15950539 -16.06197036 10.94405771 -21.25 10.6875 C-22.6249249 10.65945024 -23.99993586 10.63533096 -25.375 10.61523438 C-36.18624088 10.3321337 -36.18624088 10.3321337 -40 8 C-39.67 7.34 -39.34 6.68 -39 6 C-37.8965625 6.3196875 -36.793125 6.639375 -35.65625 6.96875 C-30.60115712 8.22362341 -25.69118218 8.44041685 -20.5 8.5 C-19.60152344 8.54125 -18.70304687 8.5825 -17.77734375 8.625 C-10.81293827 8.70609934 -7.02382297 6.74990945 -2 2 C-1.34 1.34 -0.68 0.68 0 0 Z " fill="#BD7124" transform="translate(430,137)"/>
<path d="M0 0 C1.32 0 2.64 0 4 0 C3.01 2.97 2.02 5.94 1 9 C0.34 9 -0.32 9 -1 9 C-1.66 10.65 -2.32 12.3 -3 14 C-3.66 14 -4.32 14 -5 14 C-4.93999894 12.3739713 -4.8512115 10.74898451 -4.75 9.125 C-4.70359375 8.22007812 -4.6571875 7.31515625 -4.609375 6.3828125 C-4 4 -4 4 -1.953125 2.6796875 C-1.30859375 2.45539063 -0.6640625 2.23109375 0 2 C0 1.34 0 0.68 0 0 Z " fill="#964801" transform="translate(161,313)"/>
<path d="M0 0 C4.11842473 2.26626297 7.37138642 4.99514161 10.8125 8.1875 C11.31458984 8.65091797 11.81667969 9.11433594 12.33398438 9.59179688 C13.55956829 10.72400297 14.78029342 11.86146479 16 13 C14 14 14 14 11.5625 13.9375 C7.92707172 12.60746526 7.60002066 10.40873966 6 7 C3.94906855 5.59533047 3.94906855 5.59533047 2 5 C1.67 5.33 1.34 5.66 1 6 C-0.32 6 -1.64 6 -3 6 C-3 5.34 -3 4.68 -3 4 C-2.34 4 -1.68 4 -1 4 C-0.67 2.68 -0.34 1.36 0 0 Z " fill="#C06E1C" transform="translate(441,54)"/>
<path d="M0 0 C7.24137931 5.79310345 7.24137931 5.79310345 9 9 C9 11.0625 9 11.0625 8 13 C5.4375 14.75 5.4375 14.75 3 16 C3.33 13.03 3.66 10.06 4 7 C2.68 6.67 1.36 6.34 0 6 C0 4.02 0 2.04 0 0 Z " fill="#C36A14" transform="translate(386,127)"/>
<path d="M0 0 C5.29012124 4.40843437 10.18808428 9.07559794 15 14 C14.67 14.66 14.34 15.32 14 16 C12.35 14.35 10.7 12.7 9 11 C7.02 11.99 7.02 11.99 5 13 C4.01 10.03 3.02 7.06 2 4 C1.34 4 0.68 4 0 4 C0 2.68 0 1.36 0 0 Z " fill="#C06B11" transform="translate(470,80)"/>
<path d="M0 0 C0.99 0 1.98 0 3 0 C3.226875 0.721875 3.45375 1.44375 3.6875 2.1875 C5.24471644 5.52439237 7.38054709 7.44948006 10 10 C10 10.66 10 11.32 10 12 C10.66 12.33 11.32 12.66 12 13 C11.34 13.66 10.68 14.32 10 15 C9.34 14.67 8.68 14.34 8 14 C8.33 15.32 8.66 16.64 9 18 C8.01 18.33 7.02 18.66 6 19 C5.01 18.34 4.02 17.68 3 17 C4.33463542 15.53515625 5.66927083 14.0703125 7.00390625 12.60546875 C7.33261719 12.07566406 7.66132813 11.54585937 8 11 C7.35236812 7.92729859 7.35236812 7.92729859 5.1875 7 C4.465625 6.67 3.74375 6.34 3 6 C1.64886795 5.02418241 0.31053056 4.02970259 -1 3 C-0.67 2.01 -0.34 1.02 0 0 Z " fill="#C7711C" transform="translate(452,98)"/>
<path d="M0 0 C0.99 0.33 1.98 0.66 3 1 C2.21625 1.5775 1.4325 2.155 0.625 2.75 C-2.04824947 4.72116293 -2.04824947 4.72116293 -2.9375 7.0625 C-4.53766571 9.98044924 -7.04203205 10.57790002 -10 12 C-11.08421104 12.89088184 -12.14716639 13.80825162 -13.1875 14.75 C-14.115625 15.4925 -15.04375 16.235 -16 17 C-16.99 16.67 -17.98 16.34 -19 16 C-18.01 15.67 -17.02 15.34 -16 15 C-15.67 14.01 -15.34 13.02 -15 12 C-13.35194973 10.9696078 -11.68154482 9.97477422 -10 9 C-8.19637166 7.47547327 -6.42549063 5.91145138 -4.6875 4.3125 C-3.80449219 3.50425781 -2.92148438 2.69601563 -2.01171875 1.86328125 C-1.34785156 1.24839844 -0.68398437 0.63351563 0 0 Z " fill="#854F17" transform="translate(218,235)"/>
<path d="M0 0 C2.31 0.66 4.62 1.32 7 2 C7 2.99 7 3.98 7 5 C7.598125 5.226875 8.19625 5.45375 8.8125 5.6875 C11.58532489 7.35119494 12.43300136 9.20665459 14 12 C15.58245275 13.75149165 15.58245275 13.75149165 17 15 C16.67 15.66 16.34 16.32 16 17 C13.32932797 14.3581833 10.66414667 11.7108958 8 9.0625 C7.236875 8.30775391 6.47375 7.55300781 5.6875 6.77539062 C4.965625 6.05673828 4.24375 5.33808594 3.5 4.59765625 C2.8296875 3.93258057 2.159375 3.26750488 1.46875 2.58227539 C0 1 0 1 0 0 Z " fill="#C06C1D" transform="translate(414,64)"/>
<path d="M0 0 C0 0.66 0 1.32 0 2 C-1.36125 2.309375 -1.36125 2.309375 -2.75 2.625 C-6.7939617 4.33590687 -7.66032191 6.37727263 -10 10 C-12.5 11.25 -12.5 11.25 -15 12 C-16.34101669 12.65107332 -17.67576544 13.31543806 -19 14 C-7.85714286 0 -7.85714286 0 0 0 Z " fill="#875019" transform="translate(385,19)"/>
<path d="M0 0 C3.05160609 1.37263363 5.24826932 2.95956573 7.671875 5.2578125 C8.33574219 5.88300781 8.99960937 6.50820313 9.68359375 7.15234375 C10.36550781 7.80332031 11.04742187 8.45429688 11.75 9.125 C12.44738281 9.78371094 13.14476562 10.44242187 13.86328125 11.12109375 C15.57950489 12.74327774 17.29153435 14.36965379 19 16 C18.34 16.66 17.68 17.32 17 18 C14.16266225 15.19151503 11.33081251 12.37756077 8.5 9.5625 C7.68917969 8.76005859 6.87835938 7.95761719 6.04296875 7.13085938 C5.27597656 6.36708984 4.50898438 5.60332031 3.71875 4.81640625 C3.00654297 4.10943604 2.29433594 3.40246582 1.56054688 2.67407227 C0 1 0 1 0 0 Z " fill="#DBD8D8" transform="translate(248,287)"/>
<path d="M0 0 C1.11375 1.175625 1.11375 1.175625 2.25 2.375 C4.97242945 5.23128627 4.97242945 5.23128627 9 7 C11.31 5.02 13.62 3.04 16 1 C16 1.99 16 2.98 16 4 C14.34997172 5.35386936 12.6825613 6.68678142 11 8 C10.67 8.99 10.34 9.98 10 11 C6.54457281 9.46425458 3.75129011 7.60257173 1 5 C0.1875 2.25 0.1875 2.25 0 0 Z " fill="#B86C1E" transform="translate(251,251)"/>
<path d="M0 0 C0.99 0.33 1.98 0.66 3 1 C-0.50897269 5.18423892 -4.08060535 9.19588166 -8 13 C-7.67 11.68 -7.34 10.36 -7 9 C-7.66 8.67 -8.32 8.34 -9 8 C-7.35 6.68 -5.7 5.36 -4 4 C-3.34 4.33 -2.68 4.66 -2 5 C-2.33 3.68 -2.66 2.36 -3 1 C-2.01 1.33 -1.02 1.66 0 2 C0 1.34 0 0.68 0 0 Z " fill="#C46E14" transform="translate(366,68)"/>
<path d="M0 0 C0.66 0.66 1.32 1.32 2 2 C0.7260411 4.03833424 -0.61061923 6.03852126 -2 8 C-2.66 8 -3.32 8 -4 8 C-4.4021875 8.8353125 -4.4021875 8.8353125 -4.8125 9.6875 C-6.10899496 12.21225334 -7.42476323 14.63714484 -9 17 C-9.66 17 -10.32 17 -11 17 C-11 15.68 -11 14.36 -11 13 C-10.01 13 -9.02 13 -8 13 C-7.938125 12.278125 -7.87625 11.55625 -7.8125 10.8125 C-6.7446249 7.11600926 -4.89180184 5.46861132 -2 3 C-1.34 3 -0.68 3 0 3 C0 2.01 0 1.02 0 0 Z " fill="#857567" transform="translate(181,266)"/>
<path d="M0 0 C0.66 0.99 1.32 1.98 2 3 C1.01 3.99 0.02 4.98 -1 6 C-0.34 6 0.32 6 1 6 C1 6.66 1 7.32 1 8 C0.34 8 -0.32 8 -1 8 C-2.58255197 12.32564205 -3.45144652 16.428721 -4 21 C-4.33 21 -4.66 21 -5 21 C-5.55407152 13.62777058 -4.49038161 8.50416492 -1 2 C-0.67 1.34 -0.34 0.68 0 0 Z " fill="#864C13" transform="translate(331,73)"/>
<path d="M0 0 C0.99 0.33 1.98 0.66 3 1 C-9.30769231 13.65384615 -9.30769231 13.65384615 -14 16 C-12.34136495 11.67495164 -9.128959 8.90581175 -5.875 5.75 C-5.31167969 5.19570312 -4.74835938 4.64140625 -4.16796875 4.0703125 C-2.78313972 2.70895515 -1.39216796 1.35385141 0 0 Z " fill="#BFBEBD" transform="translate(351,172)"/>
<path d="M0 0 C0.66 0.33 1.32 0.66 2 1 C1.48969238 5.46519166 -0.18234923 7.58466573 -3 11 C-4.24016669 13.6794645 -4.24016669 13.6794645 -5 16 C-5.33 16 -5.66 16 -6 16 C-5.53199289 11.94393835 -5.12046792 8.53411321 -3 5 C-2.34 5 -1.68 5 -1 5 C-1 4.34 -1 3.68 -1 3 C-1.66 2.67 -2.32 2.34 -3 2 C-2.01 1.34 -1.02 0.68 0 0 Z " fill="#954700" transform="translate(333,76)"/>
<path d="M0 0 C1.41687119 4.25061356 0.19320039 6.71851625 -1 11 C-1.763125 10.95875 -2.52625 10.9175 -3.3125 10.875 C-6.22718416 10.77919176 -6.22718416 10.77919176 -9 13 C-9.33 12.01 -9.66 11.02 -10 10 C-7 8 -7 8 -3 8 C-2.67 6.02 -2.34 4.04 -2 2 C-1.34 2 -0.68 2 0 2 C0 1.34 0 0.68 0 0 Z " fill="#827668" transform="translate(154,320)"/>
<path d="M0 0 C0.33 0.99 0.66 1.98 1 3 C-0.62339805 4.70884005 -2.29319053 6.37446717 -4 8 C-4.66 8 -5.32 8 -6 8 C-6.226875 8.61875 -6.45375 9.2375 -6.6875 9.875 C-8.37929835 12.61410209 -9.99244161 13.05024472 -13 14 C-13 13.34 -13 12.68 -13 12 C-12.01 12 -11.02 12 -10 12 C-10 11.34 -10 10.68 -10 10 C-9.34 10 -8.68 10 -8 10 C-7.79375 9.46375 -7.5875 8.9275 -7.375 8.375 C-5.42003056 4.9982346 -2.81776305 2.69525161 0 0 Z " fill="#C56910" transform="translate(348,118)"/>
<path d="M0 0 C0.99 0.33 1.98 0.66 3 1 C0.91880554 2.93984166 -1.16484547 4.87692294 -3.25 6.8125 C-4.12978516 7.63331055 -4.12978516 7.63331055 -5.02734375 8.47070312 C-7.91536679 11.14780313 -10.77521291 13.72508832 -14 16 C-12.34136495 11.67495164 -9.128959 8.90581175 -5.875 5.75 C-5.31167969 5.19570313 -4.74835938 4.64140625 -4.16796875 4.0703125 C-2.78313972 2.70895515 -1.39216796 1.35385141 0 0 Z " fill="#B8B8B8" transform="translate(270,359)"/>
<path d="M0 0 C0.99 0.33 1.98 0.66 3 1 C0.91880554 2.93984166 -1.16484547 4.87692294 -3.25 6.8125 C-4.12978516 7.63331055 -4.12978516 7.63331055 -5.02734375 8.47070312 C-7.91536679 11.14780313 -10.77521291 13.72508832 -14 16 C-12.34136495 11.67495164 -9.128959 8.90581175 -5.875 5.75 C-5.31167969 5.19570312 -4.74835938 4.64140625 -4.16796875 4.0703125 C-2.78313972 2.70895515 -1.39216796 1.35385141 0 0 Z " fill="#B7B7B7" transform="translate(334,188)"/>
<path d="M0 0 C0.99 0.33 1.98 0.66 3 1 C-1.95 5.62 -6.9 10.24 -12 15 C-12 12 -12 12 -9.375 9.08203125 C-8.25750594 7.98449244 -7.13214357 6.89492105 -6 5.8125 C-5.42765625 5.25369141 -4.8553125 4.69488281 -4.265625 4.11914062 C-2.85037212 2.73926907 -1.42602845 1.36873266 0 0 Z " fill="#BBBBBB" transform="translate(199,426)"/>
<path d="M0 0 C0.99 0.33 1.98 0.66 3 1 C1.10600285 2.75202288 -0.79011738 4.50164978 -2.6875 6.25 C-3.21794922 6.74113281 -3.74839844 7.23226562 -4.29492188 7.73828125 C-7.43433028 10.62730739 -10.63177061 13.37540567 -14 16 C-12.34136495 11.67495164 -9.128959 8.90581175 -5.875 5.75 C-5.31167969 5.19570312 -4.74835938 4.64140625 -4.16796875 4.0703125 C-2.78313972 2.70895515 -1.39216796 1.35385141 0 0 Z " fill="#B7B7B7" transform="translate(300,220)"/>
<path d="M0 0 C0.66 0.33 1.32 0.66 2 1 C-2.62 5.62 -7.24 10.24 -12 15 C-12.66 14.34 -13.32 13.68 -14 13 C-13.0409375 12.5978125 -13.0409375 12.5978125 -12.0625 12.1875 C-9.66868314 11.11332248 -9.66868314 11.11332248 -9 8 C-7.1875 6.2109375 -7.1875 6.2109375 -5 4.375 C-3.9171875 3.45847656 -3.9171875 3.45847656 -2.8125 2.5234375 C-2.214375 2.02070313 -1.61625 1.51796875 -1 1 C-0.67 0.67 -0.34 0.34 0 0 Z " fill="#CCCBCB" transform="translate(332,144)"/>
<path d="M0 0 C0.33 0 0.66 0 1 0 C1 4.62 1 9.24 1 14 C-0.98 14.99 -0.98 14.99 -3 16 C-2.40984815 10.49191603 -1.43336231 5.35121931 0 0 Z " fill="#844C14" transform="translate(156,315)"/>
<path d="M0 0 C0.99 0.33 1.98 0.66 3 1 C1.08539961 2.77311263 -0.83157493 4.54353362 -2.75 6.3125 C-3.55824219 7.06176758 -3.55824219 7.06176758 -4.3828125 7.82617188 C-7.15603952 10.37956993 -9.92190229 12.81096449 -13 15 C-11.38989473 10.92623969 -8.46177729 8.23492931 -5.375 5.25 C-4.859375 4.74339844 -4.34375 4.23679687 -3.8125 3.71484375 C-2.54616661 2.47196098 -1.2736856 1.23534724 0 0 Z " fill="#B6B6B6" transform="translate(253,375)"/>
<path d="M0 0 C0.66 0 1.32 0 2 0 C0.87548273 2.9719385 -0.22293791 5.33440687 -2 8 C-1.34 8.33 -0.68 8.66 0 9 C-2.31 8.67 -4.62 8.34 -7 8 C-6.02133662 6.85373678 -5.04205413 5.70800212 -4.0625 4.5625 C-3.51722656 3.92441406 -2.97195313 3.28632812 -2.41015625 2.62890625 C-1.63204305 1.73008851 -0.84063472 0.84063472 0 0 Z " fill="#C06B11" transform="translate(454,116)"/>
<path d="M0 0 C2.04570422 1.85600233 3.3955944 3.71493748 5 6 C3.125 5.6875 3.125 5.6875 1 5 C0.34 4.01 -0.32 3.02 -1 2 C-3.7460951 1.86923357 -6.27649467 1.85438684 -9 2 C-9.99 2 -10.98 2 -12 2 C-7.75346551 -1.21707158 -5.10263599 -1.5490145 0 0 Z " fill="#814D19" transform="translate(232,232)"/>
<path d="M0 0 C0.6875 1.6875 0.6875 1.6875 1 4 C-0.25 6.6875 -0.25 6.6875 -2 9 C-2.99 9.33 -3.98 9.66 -5 10 C-5.33 8.68 -5.66 7.36 -6 6 C-5.195625 5.38125 -4.39125 4.7625 -3.5625 4.125 C-0.96125481 2.25835959 -0.96125481 2.25835959 0 0 Z " fill="#8C4F15" transform="translate(336,132)"/>
<path d="M0 0 C0.33 0.66 0.66 1.32 1 2 C-1.02652718 7.69960771 -4.09260084 9.85185714 -9 13 C-7.5 10 -7.5 10 -6 7 C-5.34 7 -4.68 7 -4 7 C-3.71125 6.401875 -3.4225 5.80375 -3.125 5.1875 C-2 3 -2 3 0 0 Z " fill="#824E1C" transform="translate(183,267)"/>
<path d="M0 0 C2.5625 2.0625 2.5625 2.0625 5 5 C4.9375 8.75 4.9375 8.75 4 12 C3.01 12.495 3.01 12.495 2 13 C1.875 10.625 1.875 10.625 2 8 C2.66 7.34 3.32 6.68 4 6 C3.360625 5.896875 2.72125 5.79375 2.0625 5.6875 C1.381875 5.460625 0.70125 5.23375 0 5 C-0.33 4.01 -0.66 3.02 -1 2 C-0.67 1.34 -0.34 0.68 0 0 Z " fill="#C26D1B" transform="translate(261,262)"/>
<path d="M0 0 C0.66 0 1.32 0 2 0 C0.52278578 3.45201639 -1.43794001 5.64961936 -4.125 8.25 C-4.84945312 8.95640625 -5.57390625 9.6628125 -6.3203125 10.390625 C-6.87460938 10.92171875 -7.42890625 11.4528125 -8 12 C-8.66 11.34 -9.32 10.68 -10 10 C-9.44570312 9.52949219 -8.89140625 9.05898438 -8.3203125 8.57421875 C-7.59585938 7.95160156 -6.87140625 7.32898438 -6.125 6.6875 C-5.40570313 6.07261719 -4.68640625 5.45773437 -3.9453125 4.82421875 C-1.80820669 2.9587676 -1.80820669 2.9587676 0 0 Z " fill="#DEDEDE" transform="translate(94,255)"/>
<path d="M0 0 C0.99 0.33 1.98 0.66 3 1 C1.06478939 2.79419526 -0.8730354 4.58541329 -2.8125 6.375 C-3.63331055 7.13683594 -3.63331055 7.13683594 -4.47070312 7.9140625 C-6.90022015 10.15216303 -9.24568668 12.16379112 -12 14 C-10.41332422 10.09714233 -7.86649519 7.66479018 -4.875 4.75 C-3.96492188 3.85796875 -3.05484375 2.9659375 -2.1171875 2.046875 C-1.41851562 1.37140625 -0.71984375 0.6959375 0 0 Z " fill="#B6B6B6" transform="translate(317,204)"/>
<path d="M0 0 C2.4375 0.125 2.4375 0.125 5 1 C6.8125 3.0625 6.8125 3.0625 8 5 C6.7625 4.79375 5.525 4.5875 4.25 4.375 C0.88090165 3.93892876 -1.12841921 3.96596361 -4 6 C-2.84826645 3.53199953 -1.95216435 1.95216435 0 0 Z " fill="#844E1A" transform="translate(362,107)"/>
<path d="M0 0 C0 3.10551666 -0.5393715 4.35261084 -2 7 C-2.66 7 -3.32 7 -4 7 C-4.66 8.32 -5.32 9.64 -6 11 C-7.32 10.67 -8.64 10.34 -10 10 C-6.7 6.7 -3.4 3.4 0 0 Z " fill="#8A5119" transform="translate(360,39)"/>
<path d="M0 0 C0 3 0 3 -2.3359375 5.69921875 C-3.34119508 6.70314662 -4.35458968 7.6989775 -5.375 8.6875 C-5.88289063 9.19861328 -6.39078125 9.70972656 -6.9140625 10.23632812 C-10.73300859 14 -10.73300859 14 -13 14 C-11.87050952 10.61152855 -10.87716782 9.80305816 -8.1875 7.5625 C-5.33240495 5.14310168 -2.5947338 2.7028477 0 0 Z " fill="#A0A0A0" transform="translate(282,192)"/>
<path d="M0 0 C4.63720719 3.27530896 8.68542782 6.30435607 12 11 C10.35 11 8.7 11 7 11 C6.773125 10.236875 6.54625 9.47375 6.3125 8.6875 C4.72379184 5.4344309 3.06468356 4.77429048 0 3 C0 2.01 0 1.02 0 0 Z " fill="#BF7021" transform="translate(429,43)"/>
<path d="M0 0 C0.66 0.33 1.32 0.66 2 1 C2 1.66 2 2.32 2 3 C0.02 3.33 -1.96 3.66 -4 4 C-4 4.66 -4 5.32 -4 6 C-6 7.625 -6 7.625 -8 9 C-8.66 8.67 -9.32 8.34 -10 8 C-8.375 5 -8.375 5 -6 2 C-2.75 1.625 -2.75 1.625 0 2 C0 1.34 0 0.68 0 0 Z " fill="#AA6E35" transform="translate(226,302)"/>
<path d="M0 0 C1 3 1 3 1 6 C1.66 6 2.32 6 3 6 C3.66 7.98 4.32 9.96 5 12 C3.33333333 10.33333333 1.66666667 8.66666667 0 7 C-0.598125 6.443125 -1.19625 5.88625 -1.8125 5.3125 C-3 4 -3 4 -3 2 C-2.01 1.34 -1.02 0.68 0 0 Z " fill="#604B39" transform="translate(254,247)"/>
<path d="M0 0 C0 4.16751495 -2.23872302 6.14170518 -5 9 C-6.63072616 10.37705764 -8.2866438 11.72722111 -10 13 C-8.65515286 8.95838045 -6.9494838 6.61321846 -3.875 3.6875 C-3.15054687 2.99011719 -2.42609375 2.29273438 -1.6796875 1.57421875 C-1.12539063 1.05472656 -0.57109375 0.53523437 0 0 Z " fill="#C4660B" transform="translate(360,131)"/>
<path d="M0 0 C1.65 0.33 3.3 0.66 5 1 C3.02 3.31 1.04 5.62 -1 8 C-1.66 7.34 -2.32 6.68 -3 6 C-2.67 5.01 -2.34 4.02 -2 3 C-1.67 3 -1.34 3 -1 3 C-0.67 2.01 -0.34 1.02 0 0 Z " fill="#C4701A" transform="translate(383,50)"/>
<path d="M0 0 C2.04119788 1.61594832 4.04072937 3.2856382 6 5 C6 5.66 6 6.32 6 7 C4.33388095 7.042721 2.66617115 7.04063832 1 7 C0 6 0 6 -0.0625 2.9375 C-0.041875 1.968125 -0.02125 0.99875 0 0 Z " fill="#C7721B" transform="translate(386,127)"/>
<path d="M0 0 C0.33 0 0.66 0 1 0 C2.51708428 12.66970387 2.51708428 12.66970387 0 18 C-0.33 18 -0.66 18 -1 18 C-1.07495294 14.10244707 -0.93986937 10.75947749 0 7 C0.03888349 4.66699067 0.0448635 2.33290199 0 0 Z " fill="#C0772F" transform="translate(488,104)"/>
<path d="M0 0 C1.32 0.66 2.64 1.32 4 2 C4 3.32 4 4.64 4 6 C3.34 5.67 2.68 5.34 2 5 C1.67 5.33 1.34 5.66 1 6 C-0.32 6 -1.64 6 -3 6 C-3 5.34 -3 4.68 -3 4 C-2.34 4 -1.68 4 -1 4 C-0.67 2.68 -0.34 1.36 0 0 Z " fill="#C76B10" transform="translate(441,54)"/>
<path d="M0 0 C0.99 0.33 1.98 0.66 3 1 C0.03 3.64 -2.94 6.28 -6 9 C-6.66 8.67 -7.32 8.34 -8 8 C-5.36 5.36 -2.72 2.72 0 0 Z " fill="#DEDEDE" transform="translate(63,285)"/>
<path d="M0 0 C0.99 0 1.98 0 3 0 C3.2475 0.7425 3.495 1.485 3.75 2.25 C5.09147301 5.20124062 6.60905526 6.84814974 9 9 C8.01 9.495 8.01 9.495 7 10 C7 9.34 7 8.68 7 8 C6.4225 7.731875 5.845 7.46375 5.25 7.1875 C2.9674132 5.98280141 1.0262058 4.59201885 -1 3 C-0.67 2.01 -0.34 1.02 0 0 Z " fill="#C37A2C" transform="translate(452,98)"/>
<path d="M0 0 C1.98 0.66 3.96 1.32 6 2 C5.01 3.485 5.01 3.485 4 5 C2.35 4.67 0.7 4.34 -1 4 C-0.67 2.68 -0.34 1.36 0 0 Z " fill="#686660" transform="translate(351,167)"/>
<path d="M0 0 C-2.64 1.98 -5.28 3.96 -8 6 C-8 4.68 -8 3.36 -8 2 C-7.34 2 -6.68 2 -6 2 C-6 1.34 -6 0.68 -6 0 C-3 -1 -3 -1 0 0 Z " fill="#C36C18" transform="translate(444,164)"/>
<path d="M0 0 C0.66 0.33 1.32 0.66 2 1 C1.52797514 5.24822374 -0.96655518 7.19989709 -4 10 C-4 9.01 -4 8.02 -4 7 C-3.34 7 -2.68 7 -2 7 C-2 5.35 -2 3.7 -2 2 C-1.34 2 -0.68 2 0 2 C0 1.34 0 0.68 0 0 Z " fill="#C16A17" transform="translate(485,120)"/>
<path d="M0 0 C2.09970981 3.9171057 2.99334562 7.68576696 4 12 C2 11.0625 2 11.0625 0 9 C-0.36475845 5.97465051 -0.22893297 3.03336186 0 0 Z " fill="#C06A15" transform="translate(346,150)"/>
<path d="M0 0 C2.31 1.98 4.62 3.96 7 6 C3.79604584 6 1.90600261 5.25664978 -1 4 C-0.67 2.68 -0.34 1.36 0 0 Z " fill="#847664" transform="translate(333,145)"/>
<path d="M0 0 C1.31611677 0.95336021 2.62778961 1.91285774 3.9375 2.875 C4.66839844 3.40867187 5.39929688 3.94234375 6.15234375 4.4921875 C8 6 8 6 9 8 C7.68 8.33 6.36 8.66 5 9 C5 8.01 5 7.02 5 6 C4.34 6 3.68 6 3 6 C3 5.34 3 4.68 3 4 C2.34 4 1.68 4 1 4 C0.67 2.68 0.34 1.36 0 0 Z " fill="#BF7125" transform="translate(406,23)"/>
<path d="M0 0 C0.804375 0.495 0.804375 0.495 1.625 1 C4.5391061 2.22699204 6.86867708 2.14233286 10 2 C10 2.99 10 3.98 10 5 C3.47692308 4.50769231 3.47692308 4.50769231 1.0625 1.9375 C0.711875 1.298125 0.36125 0.65875 0 0 Z " fill="#C5701E" transform="translate(372,166)"/>
<path d="M0 0 C2.97 0.495 2.97 0.495 6 1 C7.125 4.75 7.125 4.75 6 7 C4.02 4.69 2.04 2.38 0 0 Z " fill="#C26B18" transform="translate(407,57)"/>
<path d="M0 0 C0.66 0.66 1.32 1.32 2 2 C0.50260417 3.23697917 -0.99479167 4.47395833 -2.4921875 5.7109375 C-3.71051161 6.75250992 -4.86660097 7.86660097 -6 9 C-6 6 -6 6 -4.6875 4.39453125 C-4.130625 3.87246094 -3.57375 3.35039062 -3 2.8125 C-2.443125 2.28269531 -1.88625 1.75289062 -1.3125 1.20703125 C-0.6628125 0.60955078 -0.6628125 0.60955078 0 0 Z " fill="#C7C5C4" transform="translate(266,252)"/>
<path d="M0 0 C4.28383193 1.97293752 7.84837867 4.69675735 10 9 C6.78956118 7.61811547 4.95063635 6.07578097 2.75 3.375 C2.22921875 2.74335938 1.7084375 2.11171875 1.171875 1.4609375 C0.78515625 0.97882813 0.3984375 0.49671875 0 0 Z " fill="#D5CFCD" transform="translate(196,238)"/>
<path d="M0 0 C0.66 0.33 1.32 0.66 2 1 C0.02 2.98 -1.96 4.96 -4 7 C-4.99 6.67 -5.98 6.34 -7 6 C-4.69 4.02 -2.38 2.04 0 0 Z " fill="#C4C4C4" transform="translate(221,406)"/>
<path d="M0 0 C1.32 0.66 2.64 1.32 4 2 C0.535 4.97 0.535 4.97 -3 8 C-2.67 6.68 -2.34 5.36 -2 4 C-1.34 4 -0.68 4 0 4 C0 2.68 0 1.36 0 0 Z " fill="#C16915" transform="translate(259,274)"/>
<path d="M0 0 C1.98 1.65 3.96 3.3 6 5 C5.34 6.32 4.68 7.64 4 9 C3.34 8.67 2.68 8.34 2 8 C2.33 7.01 2.66 6.02 3 5 C2.34 4.67 1.68 4.34 1 4 C0.375 1.9375 0.375 1.9375 0 0 Z " fill="#7E7266" transform="translate(198,241)"/>
<path d="M0 0 C0.66 0.66 1.32 1.32 2 2 C0.35 3.65 -1.3 5.3 -3 7 C-3.99 6.67 -4.98 6.34 -6 6 C-4.02 4.02 -2.04 2.04 0 0 Z " fill="#DFDFDF" transform="translate(143,208)"/>
<path d="M0 0 C2.31 1.65 4.62 3.3 7 5 C6.34 5.66 5.68 6.32 5 7 C2.375 6.625 2.375 6.625 0 6 C0 4.02 0 2.04 0 0 Z " fill="#C27020" transform="translate(379,121)"/>
<path d="M0 0 C1.65 1.65 3.3 3.3 5 5 C4.67 5.66 4.34 6.32 4 7 C3.01 6.67 2.02 6.34 1 6 C0.67 6.66 0.34 7.32 0 8 C0 5.36 0 2.72 0 0 Z " fill="#847464" transform="translate(342,154)"/>
<path d="M0 0 C2.97 1.98 2.97 1.98 6 4 C5.01 5.485 5.01 5.485 4 7 C1 5 1 5 0.3125 2.375 C0.209375 1.59125 0.10625 0.8075 0 0 Z " fill="#C66F18" transform="translate(423,38)"/>
<path d="M0 0 C0.66 0.33 1.32 0.66 2 1 C0.55746343 4.36591866 -1.33264727 6.51047079 -4 9 C-3.35455571 5.51460083 -1.89865603 2.97180943 0 0 Z " fill="#C4C4C4" transform="translate(291,336)"/>
<path d="M0 0 C0.33 0.99 0.66 1.98 1 3 C-2.26760563 8.63380282 -2.26760563 8.63380282 -5 10 C-3.66511872 6.40608886 -2.03977277 3.24509304 0 0 Z " fill="#C8680B" transform="translate(179,289)"/>
<path d="" fill="#FFFFFF" transform="translate(0,0)"/>
<path d="" fill="#FFFFFF" transform="translate(0,0)"/>
<path d="" fill="#FFFFFF" transform="translate(0,0)"/>
<path d="" fill="#FFFFFF" transform="translate(0,0)"/>
<path d="" fill="#FFFFFF" transform="translate(0,0)"/>
<path d="" fill="#FFFFFF" transform="translate(0,0)"/>
<path d="" fill="#FFFFFF" transform="translate(0,0)"/>
<path d="" fill="#FFFFFF" transform="translate(0,0)"/>
<path d="" fill="#FFFFFF" transform="translate(0,0)"/>
<path d="" fill="#FFFFFF" transform="translate(0,0)"/>
<path d="" fill="#FFFFFF" transform="translate(0,0)"/>
<path d="" fill="#FFFFFF" transform="translate(0,0)"/>
<path d="" fill="#FFFFFF" transform="translate(0,0)"/>
<path d="" fill="#FFFFFF" transform="translate(0,0)"/>
<path d="" fill="#FFFFFF" transform="translate(0,0)"/>
<path d="" fill="#FFFFFF" transform="translate(0,0)"/>
<path d="" fill="#FFFFFF" transform="translate(0,0)"/>
<path d="" fill="#FFFFFF" transform="translate(0,0)"/>
<path d="" fill="#FFFFFF" transform="translate(0,0)"/>
<path d="" fill="#FFFFFF" transform="translate(0,0)"/>
<path d="" fill="#FFFFFF" transform="translate(0,0)"/>
<path d="" fill="#FFFFFF" transform="translate(0,0)"/>
<path d="" fill="#FFFFFF" transform="translate(0,0)"/>
<path d="" fill="#FFFFFF" transform="translate(0,0)"/>
<path d="" fill="#FFFFFF" transform="translate(0,0)"/>
<path d="" fill="#FFFFFF" transform="translate(0,0)"/>
<path d="" fill="#FFFFFF" transform="translate(0,0)"/>
<path d="" fill="#FFFFFF" transform="translate(0,0)"/>
<path d="" fill="#FFFFFF" transform="translate(0,0)"/>
<path d="" fill="#FFFFFF" transform="translate(0,0)"/>
<path d="" fill="#FFFFFF" transform="translate(0,0)"/>
<path d="" fill="#FFFFFF" transform="translate(0,0)"/>
<path d="" fill="#FFFFFF" transform="translate(0,0)"/>
<path d="" fill="#FFFFFF" transform="translate(0,0)"/>
<path d="" fill="#FFFFFF" transform="translate(0,0)"/>
<path d="" fill="#FFFFFF" transform="translate(0,0)"/>
<path d="" fill="#FFFFFF" transform="translate(0,0)"/>
<path d="" fill="#FFFFFF" transform="translate(0,0)"/>
<path d="" fill="#FFFFFF" transform="translate(0,0)"/>
<path d="" fill="#FFFFFF" transform="translate(0,0)"/>
<path d="" fill="#FFFFFF" transform="translate(0,0)"/>
<path d="" fill="#FFFFFF" transform="translate(0,0)"/>
<path d="" fill="#FFFFFF" transform="translate(0,0)"/>
<path d="" fill="#FFFFFF" transform="translate(0,0)"/>
<path d="" fill="#FFFFFF" transform="translate(0,0)"/>
<path d="" fill="#FFFFFF" transform="translate(0,0)"/>
<path d="" fill="#FFFFFF" transform="translate(0,0)"/>
<path d="" fill="#FFFFFF" transform="translate(0,0)"/>
<path d="" fill="#FFFFFF" transform="translate(0,0)"/>
<path d="" fill="#FFFFFF" transform="translate(0,0)"/>
<path d="" fill="#FFFFFF" transform="translate(0,0)"/>
<path d="" fill="#FFFFFF" transform="translate(0,0)"/>
<path d="" fill="#FFFFFF" transform="translate(0,0)"/>
<path d="" fill="#FFFFFF" transform="translate(0,0)"/>
<path d="" fill="#FFFFFF" transform="translate(0,0)"/>
<path d="" fill="#FFFFFF" transform="translate(0,0)"/>
<path d="" fill="#FFFFFF" transform="translate(0,0)"/>
<path d="" fill="#FFFFFF" transform="translate(0,0)"/>
<path d="" fill="#FFFFFF" transform="translate(0,0)"/>
<path d="" fill="#FFFFFF" transform="translate(0,0)"/>
<path d="" fill="#FFFFFF" transform="translate(0,0)"/>
<path d="" fill="#FFFFFF" transform="translate(0,0)"/>
<path d="" fill="#FFFFFF" transform="translate(0,0)"/>
<path d="" fill="#FFFFFF" transform="translate(0,0)"/>
<path d="" fill="#FFFFFF" transform="translate(0,0)"/>
<path d="" fill="#FFFFFF" transform="translate(0,0)"/>
<path d="" fill="#FFFFFF" transform="translate(0,0)"/>
<path d="" fill="#FFFFFF" transform="translate(0,0)"/>
</svg>
